<?xml version="1.0" standalone="no"?>
<!DOCTYPE svg PUBLIC "-//W3C//DTD SVG 20010904//EN"
 "http://www.w3.org/TR/2001/REC-SVG-20010904/DTD/svg10.dtd">
<svg version="1.0" xmlns="http://www.w3.org/2000/svg"
 width="1716.000000pt" height="1716.000000pt" viewBox="0 0 1716.000000 1716.000000"
 preserveAspectRatio="xMidYMid meet">
<metadata>
Created by potrace 1.11, written by Peter Selinger 2001-2013
</metadata>
<g transform="translate(0.000000,1716.000000) scale(0.100000,-0.100000)"
fill="#000000" stroke="none">
<path d="M2210 10917 c-3 -3 -39 -7 -80 -10 -63 -5 -181 -23 -265 -41 -330
-68 -681 -238 -961 -464 -416 -336 -704 -799 -818 -1314 -24 -111 -29 -141
-46 -283 -9 -74 -5 -429 5 -505 79 -589 349 -1097 785 -1481 83 -72 236 -189
249 -189 4 0 16 -9 26 -20 10 -11 22 -20 26 -20 4 0 45 -21 91 -48 269 -154
601 -260 908 -290 97 -9 406 -9 490 0 56 7 125 18 255 43 184 35 496 156 665
258 478 287 810 674 1011 1179 37 93 94 279 105 343 2 17 7 37 9 45 2 8 6 31
9 50 3 19 8 46 11 60 27 130 27 560 0 699 -1 9 -10 56 -19 104 -29 151 -93
357 -148 477 -102 219 -191 367 -309 515 -226 283 -483 492 -804 653 -182 91
-438 175 -625 206 -52 8 -111 18 -130 21 -43 7 -434 18 -440 12z m342 -381
c280 -25 583 -125 831 -275 258 -156 499 -394 655 -648 131 -212 233 -477 266
-688 26 -168 28 -203 28 -356 -1 -211 -22 -351 -85 -564 -103 -349 -329 -688
-617 -930 -245 -205 -576 -364 -870 -418 -14 -3 -36 -8 -50 -11 -104 -26 -393
-38 -523 -22 -28 4 -72 9 -97 12 -99 12 -303 64 -420 109 -110 41 -308 145
-403 211 -243 169 -442 381 -583 620 -114 195 -210 441 -239 614 -3 19 -10 60
-15 90 -64 360 -2 783 164 1135 219 462 599 815 1076 998 112 43 280 90 370
102 24 4 47 8 50 10 3 2 48 7 100 10 52 4 96 8 97 9 4 4 198 -3 265 -8z"/>
<path d="M2280 8915 c-68 -18 -128 -52 -185 -106 -211 -200 -163 -551 94 -687
171 -90 377 -58 507 80 88 93 130 203 121 317 -7 88 -12 106 -46 176 -87 177
-296 270 -491 220z"/>
<path d="M636 8857 c-73 -41 -76 -56 -76 -358 0 -259 1 -267 23 -299 12 -19
37 -43 56 -54 33 -19 52 -20 563 -19 595 2 571 -1 613 78 20 38 21 54 20 307
-1 254 -2 269 -21 295 -43 58 -75 70 -181 72 l-98 2 0 -301 0 -300 -92 0 c-68
0 -93 3 -93 13 -1 6 -1 141 -1 300 l0 287 -149 0 c-113 0 -150 -3 -151 -12 0
-7 -1 -142 -1 -300 l0 -288 -94 0 -94 0 0 300 0 300 -92 0 c-78 0 -99 -4 -132
-23z"/>
<path d="M2940 8505 l0 -375 577 0 576 0 42 25 c72 42 75 56 75 352 0 249 -1
259 -23 297 -45 79 -19 76 -669 76 l-578 0 0 -375z m970 150 l0 -75 -335 0
-335 0 0 75 0 75 335 0 335 0 0 -75z m0 -300 l0 -75 -335 0 -335 0 0 75 0 75
335 0 335 0 0 -75z"/>
<path d="M5101 8803 c-64 -33 -70 -59 -70 -298 0 -238 6 -264 67 -296 30 -15
75 -17 465 -17 475 0 481 1 517 60 18 30 20 50 20 253 0 203 -2 223 -20 253
-11 18 -36 40 -55 48 -44 18 -175 19 -176 2 0 -7 -1 -120 -1 -250 l1 -238 -79
0 -79 0 0 233 c0 127 0 240 0 250 -1 15 -14 17 -126 17 l-125 0 0 -250 0 -251
-77 3 -78 3 0 245 0 245 -75 3 c-56 2 -84 -2 -109 -15z"/>
<path d="M6220 8506 l0 -315 126 2 126 2 0 300 c-1 165 -1 306 -2 313 0 9 -32
12 -125 12 l-125 0 0 -314z"/>
<path d="M6668 8807 c-15 -7 -37 -25 -50 -42 -23 -29 -23 -33 -23 -300 l0
-270 125 0 125 0 2 119 c1 65 5 121 7 124 7 7 394 8 414 1 9 -3 44 -60 77
-125 l60 -119 123 -2 c80 -1 122 2 122 9 0 6 -25 60 -55 121 -30 60 -54 111
-53 112 2 1 17 7 35 14 64 26 78 52 81 161 4 113 -11 160 -62 191 -29 18 -58
19 -466 19 -317 -1 -442 -4 -462 -13z m589 -116 l151 -1 1 -60 0 -60 -280 0
-279 0 0 60 0 59 63 3 c34 2 91 2 127 1 36 -1 133 -2 217 -2z"/>
<path d="M7784 8508 l1 -313 478 -3 c421 -2 483 0 512 14 37 17 60 47 71 88
l6 26 -408 2 -409 3 0 58 c0 50 2 57 20 58 11 0 193 2 405 2 l385 2 3 62 3 63
-407 2 -408 3 -1 53 c-1 29 2 55 7 58 4 3 188 5 408 5 l401 0 -7 22 c-13 45
-45 86 -76 96 -21 7 -190 11 -508 11 l-477 0 1 -312z"/>
<path d="M8970 8555 c0 -290 2 -304 57 -343 27 -19 47 -20 458 -20 249 0 443
3 461 9 39 12 72 46 84 87 l9 32 -408 0 -408 0 0 248 0 247 -126 3 -127 3 0
-266z"/>
<path d="M10157 8518 c1 -167 2 -308 2 -314 1 -15 930 -17 978 -3 40 13 83 62
83 95 l0 24 -405 0 -405 0 0 60 c0 50 3 60 18 61 9 0 191 1 405 1 l387 0 1 24
c1 13 1 35 1 49 0 14 0 32 -1 40 -1 13 -53 15 -406 15 l-405 0 0 60 0 60 123
0 c67 1 249 1 405 1 263 1 282 2 282 18 0 26 -41 84 -70 98 -19 10 -142 13
-510 13 l-485 0 2 -302z"/>
<path d="M11413 8804 c-56 -28 -67 -56 -67 -175 0 -97 2 -108 24 -137 14 -17
41 -35 60 -41 19 -5 189 -8 380 -8 l346 2 0 -62 1 -63 -408 0 c-398 0 -408 0
-404 -19 4 -23 24 -61 39 -77 32 -31 57 -33 491 -34 428 0 438 0 471 21 52 32
64 64 64 171 0 76 -4 99 -20 126 -37 60 -51 62 -440 62 l-350 0 -1 28 c0 15
-2 40 -3 55 -1 16 2 31 6 33 4 3 188 5 408 4 446 0 423 -4 378 67 -38 63 -41
63 -515 63 -369 0 -432 -3 -460 -16z"/>
<path d="M12603 8805 c-55 -23 -72 -65 -72 -169 0 -101 15 -147 58 -174 22
-15 67 -17 384 -18 197 -1 361 -5 365 -9 4 -3 7 -31 7 -61 l1 -54 -409 0 -409
0 7 -27 c10 -44 34 -74 70 -89 50 -20 876 -18 922 3 51 24 67 57 70 148 3 122
-7 154 -70 207 -1 1 -168 5 -372 8 l-369 5 -1 58 -1 57 55 0 c31 1 214 1 408
1 l352 0 -5 25 c-7 39 -32 71 -69 88 -29 14 -90 16 -462 16 -345 -1 -434 -4
-460 -15z"/>
<path d="M13720 8506 l0 -314 485 0 c627 1 577 -24 578 291 0 111 -3 218 -6
238 -4 20 -20 48 -38 65 l-30 29 -495 3 -494 3 0 -315z m698 185 l112 -1 0
-60 0 -60 -279 0 -278 0 -1 60 0 59 101 3 c56 2 131 2 167 1 36 -1 116 -2 178
-2z m100 -250 c8 -1 12 -20 12 -61 l0 -60 -279 0 -279 0 0 60 c1 45 4 60 16
62 13 2 489 1 530 -1z"/>
<path d="M14980 8809 c-14 -6 -35 -23 -48 -39 -22 -28 -23 -34 -23 -277 0
-136 0 -260 0 -275 l1 -27 123 2 122 2 3 125 3 125 215 -1 c118 -1 217 -3 218
-5 2 -2 31 -59 65 -126 l61 -123 125 0 c69 0 125 2 125 5 0 3 -27 59 -59 124
l-60 118 37 11 c23 8 46 24 60 46 20 30 23 46 24 136 0 98 -1 103 -29 138 -17
20 -41 40 -54 43 -39 11 -881 9 -909 -2z m693 -119 l47 0 0 -60 0 -60 -280 0
-280 0 0 59 0 60 48 3 c26 2 130 2 232 1 102 -2 206 -3 233 -3z"/>
<path d="M16157 8801 c-60 -39 -61 -46 -63 -281 -1 -258 7 -292 82 -320 17 -7
180 -10 456 -9 477 2 477 2 510 69 15 30 18 65 18 243 0 233 -6 263 -62 297
-32 19 -48 20 -473 20 -409 -1 -443 -2 -468 -19z m705 -110 l46 -1 1 -185 0
-185 -282 0 -282 0 1 181 c1 112 6 184 12 188 8 5 179 6 504 2z"/>
</g>
</svg>
